<svg xmlns="http://www.w3.org/2000/svg" viewBox="0 0 146.99902 112.85819"><defs><style>.cls-1{fill:#1582ad;}</style></defs><title>Encryption_File导出</title><g id="图层_2" data-name="图层 2"><g id="Encryption"><g id="Encryption_File"><g id="Encryption_File_2"><g id="Prog"><g id="Main"><path class="cls-1" d="M126.483,74.31948h6.78654l-19.24641,38.53871H0V13.44981A8.75149,8.75149,0,0,1,.706,9.91965a9.202,9.202,0,0,1,4.8008-4.80079,8.76566,8.76566,0,0,1,3.53015-.706h24.8525a19.66729,19.66729,0,0,1,5.4716.67081,20.43831,20.43831,0,0,1,4.09477,1.65914,19.32555,19.32555,0,0,1,3.21262,2.18854,33.76454,33.76454,0,0,0,2.85935,2.18853,16.28121,16.28121,0,0,0,3.10643,1.65968,10.1975,10.1975,0,0,0,3.84768.67028H74.86541v6.48982L56.48193,19.755a19.62245,19.62245,0,0,1-5.47161-.67081A20.28869,20.28869,0,0,1,46.91556,17.425,19.13349,19.13349,0,0,1,43.70293,15.236a34.68809,34.68809,0,0,0-2.85934-2.18853,16.4647,16.4647,0,0,0-3.10643-1.65915,10.23,10.23,0,0,0-3.84768-.67081H12.94737A7.48317,7.48317,0,0,0,5.46413,18.2007V97.27108L22.95107,61.75074l4.32437,4.27968L6.43006,107.654H109.78885ZM57.7535,40.985H74.999V36.46225H54.97568a15.87149,15.87149,0,0,0-15.871,15.87261V64.82729l-5.7379-5.70508-3.16954,3.16966L41.3615,73.46162,52.52591,62.29187l-3.16953-3.16966L43.613,64.82729V55.12537A14.14039,14.14039,0,0,1,57.7535,40.985ZM146.999,60.89209a4.53267,4.53267,0,0,1-.36595,1.82965,4.76989,4.76989,0,0,1-2.48832,2.48818,4.53891,4.53891,0,0,1-1.82965.36609H86.10694a4.54163,4.54163,0,0,1-1.82965-.36609A4.76989,4.76989,0,0,1,81.789,62.72174a4.54379,4.54379,0,0,1-.366-1.82965V0h57.196l8.38,8.4166ZM104.843,18.736h23.42V4.68392H123.579V14.052h-4.68406V4.68392H104.843Zm28.10394,18.736H95.47505V60.89209H132.947Zm9.36812,23.42016V10.35592l-5.63544-5.672H132.947v18.736H100.159V4.68392h-14.052V60.89209H90.791V32.788h46.84V60.89209ZM126.23329,42.62441h-24.591v4.37173h24.591Zm0,8.74346h-24.591v4.37174h24.591Z"/></g></g></g></g></g></g></svg>